<svg width="642" height="112" viewBox="0 0 642 112" fill="none" xmlns="http://www.w3.org/2000/svg">
<path d="M69.6047 105.506C71.3269 106.05 71.6049 108.377 70.054 109.305C67.0588 111.088 63.3791 111.579 59.9134 110.479L10.4618 94.7897C4.46082 92.8793 0.363982 87.3399 0.321226 81.0534L0.000222774 29.2882C-0.0318991 23.8981 3.41252 19.1165 8.52555 17.4194L59.218 0.630631C63.0581 -0.63967 67.1765 0.0541901 70.3535 2.30624C71.7655 3.30944 71.4445 5.47614 69.8078 6.02053L34.658 17.6651C29.5344 19.3513 26.1006 24.1435 26.1327 29.5336L26.4643 82.825C26.4965 88.2042 30.0049 92.9432 35.15 94.5763L69.6262 105.516L69.6047 105.506Z" fill="#1E1E1E"/>
<path d="M79.9809 5.56149C78.2587 5.0171 77.9804 2.69053 79.5316 1.76185C82.5268 -0.0205522 86.2065 -0.511432 89.6722 0.587733L139.124 16.2774C145.125 18.188 149.221 23.7274 149.265 30.0139L149.586 81.7791C149.616 87.169 146.172 91.9506 141.06 93.6476L90.3676 110.437C86.5273 111.707 82.4089 111.013 79.2321 108.761C77.82 107.758 78.141 105.591 79.7775 105.047L114.928 93.4022C120.051 91.7158 123.485 86.9235 123.453 81.5336L123.121 28.2421C123.089 22.8628 119.581 18.1239 114.435 16.491L79.9594 5.55088L79.9809 5.56149Z" fill="#1E1E1E"/>
<path d="M72.3058 37.2503C72.0597 37.1756 71.9099 36.9193 71.9633 36.6633C72.6266 33.7707 76.7128 17.953 86.0511 18.5721C89.6775 18.8817 94.3733 21.87 94.2129 29.1706C94.1808 30.729 93.646 32.2551 92.619 33.4399C90.2016 36.2257 85.8907 38.0934 79.7401 38.2321C77.3867 38.2321 74.5734 37.9227 72.3058 37.2503ZM40.8035 74.1369V70.54C40.8035 70.54 40.8035 70.4974 40.825 70.4865L40.8463 70.4666C41.7756 69.5982 57.2589 55.1302 64.8606 50.6023C69.471 48.5318 74.2632 48.8414 78.4243 53.3134C78.7016 53.6855 78.9501 53.9999 79.1768 54.2867C80.7518 56.2794 81.2755 56.9419 83.0989 66.3561C83.6016 69.2591 86.0083 74.4783 89.8593 75.1189C93.0791 75.6204 96.4914 74.7987 102.61 70.3264C105.616 68.1812 106.792 67.1353 107.081 66.8684C107.124 66.8364 107.178 66.847 107.199 66.8897L108.643 69.8356C108.643 69.8356 108.654 69.8997 108.643 69.9209C108.018 70.579 100.227 78.7857 91.5066 83.6787C89.0462 85.2583 84.1793 87.3291 76.039 87.5851C71.1826 87.3291 65.877 84.0524 62.3362 77.627C60.5625 74.537 59.0939 70.2464 58.8355 69.4913C58.8119 69.4223 58.7984 69.3828 58.7957 69.3765C58.7635 69.302 57.0307 65.6837 51.2865 67.861C48.7965 68.8714 42.3746 73.2173 41.0428 74.1185L40.9211 74.2008C40.8677 74.2329 40.8035 74.2008 40.8035 74.1369Z" fill="#1E1E1E"/>
<path d="M72.306 37.2504C72.0599 37.1757 71.9101 36.9194 71.9635 36.6634C72.6268 33.7707 76.713 17.9531 86.0514 18.5722C89.6777 18.8818 94.3735 21.8701 94.2131 29.1707C94.181 30.7291 93.6462 32.2552 92.6192 33.44C90.2018 36.2258 85.891 38.0935 79.7403 38.2322C77.3869 38.2322 74.5736 37.9228 72.306 37.2504ZM40.8037 74.137V70.5401C40.8037 70.5401 40.8037 70.4974 40.8252 70.4866L40.8465 70.4667C41.7758 69.5983 57.2591 55.1303 64.8608 50.6024C69.4712 48.5319 74.2634 48.8415 78.4245 53.3135C78.7018 53.6856 78.9503 54 79.1771 54.2868C80.752 56.2794 81.2757 56.942 83.0991 66.3562C83.6018 69.2592 86.0085 74.4784 89.8595 75.119C93.0793 75.6204 96.4916 74.7988 102.61 70.3265C105.616 68.1813 106.793 67.1354 107.081 66.8685C107.124 66.8364 107.178 66.8471 107.199 66.8897L108.643 69.8356C108.643 69.8356 108.654 69.8998 108.643 69.921C108.018 70.5791 100.227 78.7858 91.5068 83.6787C89.0465 85.2584 84.1796 87.3291 76.0393 87.5852C71.1828 87.3291 65.8772 84.0524 62.3364 77.6271C60.5627 74.5371 59.0942 70.2465 58.8357 69.4914C58.8121 69.4224 58.7986 69.3829 58.7959 69.3766C58.7638 69.3021 57.0309 65.6838 51.2867 67.8611C48.7967 68.8715 42.3748 73.2173 41.043 74.1186L40.9213 74.2009C40.868 74.233 40.8037 74.2009 40.8037 74.137Z" fill="#C60000"/>
<path d="M208.682 97.3005C196.306 97.3005 186.266 93.4357 178.559 85.7063C170.853 77.9768 167 67.955 167 55.6409C167 43.1373 170.986 33.0208 178.958 25.2914C186.93 17.524 196.971 13.6403 209.081 13.6403C213.712 13.6403 217.774 14.1329 221.266 15.118C224.797 16.0653 227.986 17.3724 230.833 19.0396C233.68 20.6688 236.109 22.4307 238.121 24.3252C240.171 26.2197 241.196 27.1669 241.196 27.1669L230.377 39.0453C230.377 39.0453 229.732 38.3633 228.441 36.9992C227.15 35.5973 225.594 34.347 223.772 33.2482C221.988 32.1115 219.938 31.1832 217.622 30.4633C215.344 29.7055 212.611 29.3266 209.422 29.3266C202.323 29.3266 196.363 31.7705 191.542 36.6582C186.721 41.5081 184.311 47.8356 184.311 55.6409C184.311 63.2567 186.626 69.4895 191.258 74.3394C195.889 79.1893 201.868 81.6142 209.195 81.6142C212.535 81.6142 215.477 81.2353 218.021 80.4775C220.564 79.7197 222.766 78.7156 224.626 77.4653C226.486 76.177 228.024 74.7941 229.238 73.3164C230.453 71.8387 231.061 71.0998 231.061 71.0998L242.506 81.6142C242.506 81.6142 241.5 82.7698 239.488 85.0811C237.514 87.3924 235.065 89.4763 232.142 91.3329C229.219 93.1516 225.822 94.6103 221.95 95.7091C218.116 96.77 213.693 97.3005 208.682 97.3005Z" fill="#1E1E1E"/>
<path d="M244.705 96.1638V14.777H261.503V96.1638H244.705Z" fill="#1E1E1E"/>
<path d="M269.07 96.1638V36.3172H283.761V47.3431L281.939 45.1265H283.647C285.507 42.1333 288.127 39.7273 291.505 37.9086C294.922 36.0899 298.718 35.1805 302.894 35.1805C309.461 35.1805 314.605 37.1697 318.325 41.1481C322.045 45.1265 323.906 50.6016 323.906 57.5733V96.1638H308.93V61.0402C308.93 57.2891 308 54.2579 306.139 51.9467C304.317 49.5975 301.413 48.4229 297.427 48.4229C293.707 48.4229 290.556 49.7112 287.975 52.2877C285.393 54.8642 284.103 58.2553 284.103 62.461V96.1638H269.07Z" fill="#1E1E1E"/>
<mask id="path-4-outside-1_339_2" maskUnits="userSpaceOnUse" x="326.081" y="17" width="315" height="84" fill="black">
<rect fill="white" x="326.081" y="17" width="315" height="84"/>
<path d="M365.783 97.25C354.649 97.25 345.748 93.7243 339.081 86.6729C332.414 79.5863 329.081 70.3248 329.081 58.8881C329.081 47.1357 332.589 37.7163 339.605 30.6298C346.655 23.5433 355.591 20 366.411 20C371.124 20 375.12 20.5262 378.401 21.5787C381.682 22.596 384.614 23.9116 387.197 25.5254C389.78 27.1391 391.857 28.788 393.428 30.4719C395.033 32.1207 395.836 32.9452 395.836 32.9452L390.391 37.9969C390.391 37.9969 389.71 37.2778 388.349 35.8394C387.023 34.366 385.347 33.0153 383.323 31.7875C381.298 30.5245 378.925 29.4545 376.202 28.5775C373.515 27.7004 370.268 27.2619 366.464 27.2619C358.122 27.2619 351.123 30.1912 345.469 36.0499C339.814 41.8735 336.987 49.4862 336.987 58.8881C336.987 67.9743 339.675 75.4292 345.05 81.2527C350.425 87.0763 357.441 89.9881 366.097 89.9881C370.146 89.9881 373.689 89.5496 376.726 88.6725C379.797 87.7604 382.38 86.5676 384.475 85.0942C386.604 83.5857 388.297 82.0245 389.553 80.4108C390.845 78.797 391.49 77.9901 391.49 77.9901L397.302 82.4104C397.302 82.4104 396.464 83.4629 394.789 85.5678C393.113 87.6376 390.949 89.5496 388.297 91.3036C385.644 93.0577 382.485 94.4961 378.82 95.6187C375.155 96.7062 370.809 97.25 365.783 97.25Z"/>
<path d="M424.959 97.25C416.931 97.25 410.195 94.4435 404.75 88.8304C399.34 83.1822 396.634 76.4641 396.634 68.6759C396.634 60.9229 399.34 54.2222 404.75 48.5741C410.195 42.9259 416.931 40.1018 424.959 40.1018C432.953 40.1018 439.689 42.9259 445.169 48.5741C450.649 54.2222 453.389 60.9229 453.389 68.6759C453.389 76.4641 450.649 83.1822 445.169 88.8304C439.689 94.4435 432.953 97.25 424.959 97.25ZM424.959 89.8302C430.579 89.8302 435.431 87.813 439.515 83.7786C443.633 79.7091 445.693 74.6749 445.693 68.6759C445.693 62.6769 443.633 57.6603 439.515 53.6259C435.431 49.5915 430.579 47.5742 424.959 47.5742C419.34 47.5742 414.488 49.5915 410.404 53.6259C406.355 57.6603 404.331 62.6769 404.331 68.6759C404.331 74.6749 406.355 79.7091 410.404 83.7786C414.488 87.813 419.34 89.8302 424.959 89.8302Z"/>
<path d="M480.841 97.25C473.476 97.25 467.158 94.5136 461.887 89.0409C456.617 83.5681 453.981 76.7798 453.981 68.6759C453.981 60.3265 456.634 53.4855 461.94 48.1531C467.28 42.7856 473.703 40.1018 481.207 40.1018C486.024 40.1018 490.474 41.1367 494.558 43.2066C498.642 45.2413 501.556 47.9952 503.302 51.4683L502.412 50.7842V20.9472H509.846V96.3028H502.516V84.3575L503.354 85.7256C501.574 89.2689 498.624 92.0754 494.506 94.1453C490.387 96.2151 485.832 97.25 480.841 97.25ZM482.411 90.0933C488.485 90.0933 493.406 88.041 497.176 83.9365C500.946 79.7968 502.83 74.71 502.83 68.6759C502.83 62.3261 500.893 57.1691 497.019 53.2049C493.144 49.2056 488.275 47.2059 482.411 47.2059C476.338 47.2059 471.346 49.1529 467.437 53.047C463.563 56.9411 461.626 62.1507 461.626 68.6759C461.626 75.2362 463.58 80.4458 467.49 84.3048C471.434 88.1638 476.408 90.0933 482.411 90.0933Z"/>
<path d="M542.108 97.25C534.289 97.25 527.605 94.5662 522.055 89.1987C516.54 83.7962 513.783 76.9552 513.783 68.6759C513.783 60.3966 516.558 53.5732 522.107 48.2057C527.657 42.8031 534.254 40.1018 541.898 40.1018C549.822 40.1018 556.227 42.5751 561.113 47.5216C566 52.4682 568.443 58.7127 568.443 66.2553V70.5177H517.71V63.7294H560.537C560.398 58.9934 558.6 55.0642 555.145 51.9419C551.724 48.8197 547.309 47.2585 541.898 47.2585C536.279 47.2585 531.444 49.3108 527.396 53.4154C523.347 57.5199 521.322 62.6068 521.322 68.6759C521.322 74.9205 523.434 80.0424 527.657 84.0417C531.916 88.006 536.715 89.9881 542.055 89.9881C544.952 89.9881 547.483 89.5846 549.647 88.7778C551.811 87.9358 553.748 86.7255 555.459 85.1468C557.169 83.5681 558.914 81.3053 560.694 78.3585L567.291 81.3053C565.407 85.1293 563.295 88.1638 560.956 90.4091C558.618 92.6543 555.93 94.3558 552.893 95.5135C549.857 96.6712 546.261 97.25 542.108 97.25Z"/>
<path d="M571.258 96.3028V41.049H578.588V50.2054L578.326 49.7844H578.588C580.682 46.4516 583.126 44.0135 585.918 42.4699C588.711 40.8912 591.555 40.1018 594.452 40.1018C594.871 40.1018 595.447 40.1369 596.18 40.2071C596.913 40.2422 597.629 40.3299 598.327 40.4702C599.025 40.5754 599.374 40.6281 599.374 40.6281V47.9426C599.374 47.9426 599.077 47.89 598.484 47.7847C597.89 47.6444 597.157 47.5392 596.285 47.469C595.447 47.3988 594.819 47.3638 594.4 47.3638C590.246 47.3638 586.581 48.96 583.405 52.1524C580.264 55.3098 578.693 59.7125 578.693 65.3607V96.3028H571.258Z"/>
<path d="M617.871 97.25C614.067 97.25 610.838 96.7589 608.185 95.7766C605.567 94.7943 603.334 93.4086 601.484 91.6194C599.634 89.8302 598.238 87.9884 597.295 86.094C596.353 84.1996 595.881 83.2524 595.881 83.2524L602.636 80.0424C602.636 80.0424 603.072 80.8142 603.944 82.3578C604.852 83.9014 605.899 85.2696 607.086 86.4624C608.273 87.6551 609.773 88.6024 611.589 89.304C613.404 90.0056 615.672 90.3564 618.395 90.3564C621.781 90.3564 624.625 89.5846 626.929 88.041C629.268 86.4974 630.437 84.4452 630.437 81.8842C630.437 79.0075 629.477 76.9026 627.557 75.5695C625.672 74.2013 622.2 72.8857 617.138 71.6228C609.599 69.7284 604.52 67.5358 601.903 65.045C599.32 62.5191 598.028 59.2916 598.028 55.3624C598.028 50.8369 599.861 47.1708 603.526 44.3643C607.191 41.5226 611.955 40.1018 617.819 40.1018C620.576 40.1018 622.985 40.4527 625.044 41.1543C627.138 41.8559 628.988 42.9084 630.594 44.3116C632.2 45.7149 633.561 47.2936 634.678 49.0477C635.795 50.8018 636.353 51.6788 636.353 51.6788L630.07 55.2045C630.07 55.2045 629.669 54.5906 628.866 53.3627C628.063 52.0998 627.104 50.9947 625.987 50.0475C624.905 49.0652 623.631 48.3285 622.165 47.8374C620.734 47.3462 619.058 47.1006 617.138 47.1006C613.508 47.1006 610.664 47.8549 608.604 49.3634C606.58 50.8369 605.567 52.6611 605.567 54.8362C605.567 57.5375 606.719 59.5371 609.023 60.8352C611.327 62.0981 614.939 63.326 619.861 64.5187C626.318 66.0974 630.961 68.0445 633.788 70.3598C636.65 72.6752 638.081 76.3237 638.081 81.3053C638.081 86.287 636.214 90.1986 632.479 93.0402C628.744 95.8467 623.875 97.25 617.871 97.25Z"/>
</mask>
<path d="M365.783 97.25C354.649 97.25 345.748 93.7243 339.081 86.6729C332.414 79.5863 329.081 70.3248 329.081 58.8881C329.081 47.1357 332.589 37.7163 339.605 30.6298C346.655 23.5433 355.591 20 366.411 20C371.124 20 375.12 20.5262 378.401 21.5787C381.682 22.596 384.614 23.9116 387.197 25.5254C389.78 27.1391 391.857 28.788 393.428 30.4719C395.033 32.1207 395.836 32.9452 395.836 32.9452L390.391 37.9969C390.391 37.9969 389.71 37.2778 388.349 35.8394C387.023 34.366 385.347 33.0153 383.323 31.7875C381.298 30.5245 378.925 29.4545 376.202 28.5775C373.515 27.7004 370.268 27.2619 366.464 27.2619C358.122 27.2619 351.123 30.1912 345.469 36.0499C339.814 41.8735 336.987 49.4862 336.987 58.8881C336.987 67.9743 339.675 75.4292 345.05 81.2527C350.425 87.0763 357.441 89.9881 366.097 89.9881C370.146 89.9881 373.689 89.5496 376.726 88.6725C379.797 87.7604 382.38 86.5676 384.475 85.0942C386.604 83.5857 388.297 82.0245 389.553 80.4108C390.845 78.797 391.49 77.9901 391.49 77.9901L397.302 82.4104C397.302 82.4104 396.464 83.4629 394.789 85.5678C393.113 87.6376 390.949 89.5496 388.297 91.3036C385.644 93.0577 382.485 94.4961 378.82 95.6187C375.155 96.7062 370.809 97.25 365.783 97.25Z" fill="#C60000"/>
<path d="M424.959 97.25C416.931 97.25 410.195 94.4435 404.75 88.8304C399.34 83.1822 396.634 76.4641 396.634 68.6759C396.634 60.9229 399.34 54.2222 404.75 48.5741C410.195 42.9259 416.931 40.1018 424.959 40.1018C432.953 40.1018 439.689 42.9259 445.169 48.5741C450.649 54.2222 453.389 60.9229 453.389 68.6759C453.389 76.4641 450.649 83.1822 445.169 88.8304C439.689 94.4435 432.953 97.25 424.959 97.25ZM424.959 89.8302C430.579 89.8302 435.431 87.813 439.515 83.7786C443.633 79.7091 445.693 74.6749 445.693 68.6759C445.693 62.6769 443.633 57.6603 439.515 53.6259C435.431 49.5915 430.579 47.5742 424.959 47.5742C419.34 47.5742 414.488 49.5915 410.404 53.6259C406.355 57.6603 404.331 62.6769 404.331 68.6759C404.331 74.6749 406.355 79.7091 410.404 83.7786C414.488 87.813 419.34 89.8302 424.959 89.8302Z" fill="#C60000"/>
<path d="M480.841 97.25C473.476 97.25 467.158 94.5136 461.887 89.0409C456.617 83.5681 453.981 76.7798 453.981 68.6759C453.981 60.3265 456.634 53.4855 461.94 48.1531C467.28 42.7856 473.703 40.1018 481.207 40.1018C486.024 40.1018 490.474 41.1367 494.558 43.2066C498.642 45.2413 501.556 47.9952 503.302 51.4683L502.412 50.7842V20.9472H509.846V96.3028H502.516V84.3575L503.354 85.7256C501.574 89.2689 498.624 92.0754 494.506 94.1453C490.387 96.2151 485.832 97.25 480.841 97.25ZM482.411 90.0933C488.485 90.0933 493.406 88.041 497.176 83.9365C500.946 79.7968 502.83 74.71 502.83 68.6759C502.83 62.3261 500.893 57.1691 497.019 53.2049C493.144 49.2056 488.275 47.2059 482.411 47.2059C476.338 47.2059 471.346 49.1529 467.437 53.047C463.563 56.9411 461.626 62.1507 461.626 68.6759C461.626 75.2362 463.58 80.4458 467.49 84.3048C471.434 88.1638 476.408 90.0933 482.411 90.0933Z" fill="#C60000"/>
<path d="M542.108 97.25C534.289 97.25 527.605 94.5662 522.055 89.1987C516.54 83.7962 513.783 76.9552 513.783 68.6759C513.783 60.3966 516.558 53.5732 522.107 48.2057C527.657 42.8031 534.254 40.1018 541.898 40.1018C549.822 40.1018 556.227 42.5751 561.113 47.5216C566 52.4682 568.443 58.7127 568.443 66.2553V70.5177H517.71V63.7294H560.537C560.398 58.9934 558.6 55.0642 555.145 51.9419C551.724 48.8197 547.309 47.2585 541.898 47.2585C536.279 47.2585 531.444 49.3108 527.396 53.4154C523.347 57.5199 521.322 62.6068 521.322 68.6759C521.322 74.9205 523.434 80.0424 527.657 84.0417C531.916 88.006 536.715 89.9881 542.055 89.9881C544.952 89.9881 547.483 89.5846 549.647 88.7778C551.811 87.9358 553.748 86.7255 555.459 85.1468C557.169 83.5681 558.914 81.3053 560.694 78.3585L567.291 81.3053C565.407 85.1293 563.295 88.1638 560.956 90.4091C558.618 92.6543 555.93 94.3558 552.893 95.5135C549.857 96.6712 546.261 97.25 542.108 97.25Z" fill="#C60000"/>
<path d="M571.258 96.3028V41.049H578.588V50.2054L578.326 49.7844H578.588C580.682 46.4516 583.126 44.0135 585.918 42.4699C588.711 40.8912 591.555 40.1018 594.452 40.1018C594.871 40.1018 595.447 40.1369 596.18 40.2071C596.913 40.2422 597.629 40.3299 598.327 40.4702C599.025 40.5754 599.374 40.6281 599.374 40.6281V47.9426C599.374 47.9426 599.077 47.89 598.484 47.7847C597.89 47.6444 597.157 47.5392 596.285 47.469C595.447 47.3988 594.819 47.3638 594.4 47.3638C590.246 47.3638 586.581 48.96 583.405 52.1524C580.264 55.3098 578.693 59.7125 578.693 65.3607V96.3028H571.258Z" fill="#C60000"/>
<path d="M617.871 97.25C614.067 97.25 610.838 96.7589 608.185 95.7766C605.567 94.7943 603.334 93.4086 601.484 91.6194C599.634 89.8302 598.238 87.9884 597.295 86.094C596.353 84.1996 595.881 83.2524 595.881 83.2524L602.636 80.0424C602.636 80.0424 603.072 80.8142 603.944 82.3578C604.852 83.9014 605.899 85.2696 607.086 86.4624C608.273 87.6551 609.773 88.6024 611.589 89.304C613.404 90.0056 615.672 90.3564 618.395 90.3564C621.781 90.3564 624.625 89.5846 626.929 88.041C629.268 86.4974 630.437 84.4452 630.437 81.8842C630.437 79.0075 629.477 76.9026 627.557 75.5695C625.672 74.2013 622.2 72.8857 617.138 71.6228C609.599 69.7284 604.52 67.5358 601.903 65.045C599.32 62.5191 598.028 59.2916 598.028 55.3624C598.028 50.8369 599.861 47.1708 603.526 44.3643C607.191 41.5226 611.955 40.1018 617.819 40.1018C620.576 40.1018 622.985 40.4527 625.044 41.1543C627.138 41.8559 628.988 42.9084 630.594 44.3116C632.2 45.7149 633.561 47.2936 634.678 49.0477C635.795 50.8018 636.353 51.6788 636.353 51.6788L630.07 55.2045C630.07 55.2045 629.669 54.5906 628.866 53.3627C628.063 52.0998 627.104 50.9947 625.987 50.0475C624.905 49.0652 623.631 48.3285 622.165 47.8374C620.734 47.3462 619.058 47.1006 617.138 47.1006C613.508 47.1006 610.664 47.8549 608.604 49.3634C606.58 50.8369 605.567 52.6611 605.567 54.8362C605.567 57.5375 606.719 59.5371 609.023 60.8352C611.327 62.0981 614.939 63.326 619.861 64.5187C626.318 66.0974 630.961 68.0445 633.788 70.3598C636.65 72.6752 638.081 76.3237 638.081 81.3053C638.081 86.287 636.214 90.1986 632.479 93.0402C628.744 95.8467 623.875 97.25 617.871 97.25Z" fill="#C60000"/>
<path d="M365.783 97.25C354.649 97.25 345.748 93.7243 339.081 86.6729C332.414 79.5863 329.081 70.3248 329.081 58.8881C329.081 47.1357 332.589 37.7163 339.605 30.6298C346.655 23.5433 355.591 20 366.411 20C371.124 20 375.12 20.5262 378.401 21.5787C381.682 22.596 384.614 23.9116 387.197 25.5254C389.78 27.1391 391.857 28.788 393.428 30.4719C395.033 32.1207 395.836 32.9452 395.836 32.9452L390.391 37.9969C390.391 37.9969 389.71 37.2778 388.349 35.8394C387.023 34.366 385.347 33.0153 383.323 31.7875C381.298 30.5245 378.925 29.4545 376.202 28.5775C373.515 27.7004 370.268 27.2619 366.464 27.2619C358.122 27.2619 351.123 30.1912 345.469 36.0499C339.814 41.8735 336.987 49.4862 336.987 58.8881C336.987 67.9743 339.675 75.4292 345.05 81.2527C350.425 87.0763 357.441 89.9881 366.097 89.9881C370.146 89.9881 373.689 89.5496 376.726 88.6725C379.797 87.7604 382.38 86.5676 384.475 85.0942C386.604 83.5857 388.297 82.0245 389.553 80.4108C390.845 78.797 391.49 77.9901 391.49 77.9901L397.302 82.4104C397.302 82.4104 396.464 83.4629 394.789 85.5678C393.113 87.6376 390.949 89.5496 388.297 91.3036C385.644 93.0577 382.485 94.4961 378.82 95.6187C375.155 96.7062 370.809 97.25 365.783 97.25Z" stroke="#C60000" stroke-width="6" mask="url(#path-4-outside-1_339_2)"/>
<path d="M424.959 97.25C416.931 97.25 410.195 94.4435 404.75 88.8304C399.34 83.1822 396.634 76.4641 396.634 68.6759C396.634 60.9229 399.34 54.2222 404.75 48.5741C410.195 42.9259 416.931 40.1018 424.959 40.1018C432.953 40.1018 439.689 42.9259 445.169 48.5741C450.649 54.2222 453.389 60.9229 453.389 68.6759C453.389 76.4641 450.649 83.1822 445.169 88.8304C439.689 94.4435 432.953 97.25 424.959 97.25ZM424.959 89.8302C430.579 89.8302 435.431 87.813 439.515 83.7786C443.633 79.7091 445.693 74.6749 445.693 68.6759C445.693 62.6769 443.633 57.6603 439.515 53.6259C435.431 49.5915 430.579 47.5742 424.959 47.5742C419.34 47.5742 414.488 49.5915 410.404 53.6259C406.355 57.6603 404.331 62.6769 404.331 68.6759C404.331 74.6749 406.355 79.7091 410.404 83.7786C414.488 87.813 419.34 89.8302 424.959 89.8302Z" stroke="#C60000" stroke-width="6" mask="url(#path-4-outside-1_339_2)"/>
<path d="M480.841 97.25C473.476 97.25 467.158 94.5136 461.887 89.0409C456.617 83.5681 453.981 76.7798 453.981 68.6759C453.981 60.3265 456.634 53.4855 461.94 48.1531C467.28 42.7856 473.703 40.1018 481.207 40.1018C486.024 40.1018 490.474 41.1367 494.558 43.2066C498.642 45.2413 501.556 47.9952 503.302 51.4683L502.412 50.7842V20.9472H509.846V96.3028H502.516V84.3575L503.354 85.7256C501.574 89.2689 498.624 92.0754 494.506 94.1453C490.387 96.2151 485.832 97.25 480.841 97.25ZM482.411 90.0933C488.485 90.0933 493.406 88.041 497.176 83.9365C500.946 79.7968 502.83 74.71 502.83 68.6759C502.83 62.3261 500.893 57.1691 497.019 53.2049C493.144 49.2056 488.275 47.2059 482.411 47.2059C476.338 47.2059 471.346 49.1529 467.437 53.047C463.563 56.9411 461.626 62.1507 461.626 68.6759C461.626 75.2362 463.58 80.4458 467.49 84.3048C471.434 88.1638 476.408 90.0933 482.411 90.0933Z" stroke="#C60000" stroke-width="6" mask="url(#path-4-outside-1_339_2)"/>
<path d="M542.108 97.25C534.289 97.25 527.605 94.5662 522.055 89.1987C516.54 83.7962 513.783 76.9552 513.783 68.6759C513.783 60.3966 516.558 53.5732 522.107 48.2057C527.657 42.8031 534.254 40.1018 541.898 40.1018C549.822 40.1018 556.227 42.5751 561.113 47.5216C566 52.4682 568.443 58.7127 568.443 66.2553V70.5177H517.71V63.7294H560.537C560.398 58.9934 558.6 55.0642 555.145 51.9419C551.724 48.8197 547.309 47.2585 541.898 47.2585C536.279 47.2585 531.444 49.3108 527.396 53.4154C523.347 57.5199 521.322 62.6068 521.322 68.6759C521.322 74.9205 523.434 80.0424 527.657 84.0417C531.916 88.006 536.715 89.9881 542.055 89.9881C544.952 89.9881 547.483 89.5846 549.647 88.7778C551.811 87.9358 553.748 86.7255 555.459 85.1468C557.169 83.5681 558.914 81.3053 560.694 78.3585L567.291 81.3053C565.407 85.1293 563.295 88.1638 560.956 90.4091C558.618 92.6543 555.93 94.3558 552.893 95.5135C549.857 96.6712 546.261 97.25 542.108 97.25Z" stroke="#C60000" stroke-width="6" mask="url(#path-4-outside-1_339_2)"/>
<path d="M571.258 96.3028V41.049H578.588V50.2054L578.326 49.7844H578.588C580.682 46.4516 583.126 44.0135 585.918 42.4699C588.711 40.8912 591.555 40.1018 594.452 40.1018C594.871 40.1018 595.447 40.1369 596.18 40.2071C596.913 40.2422 597.629 40.3299 598.327 40.4702C599.025 40.5754 599.374 40.6281 599.374 40.6281V47.9426C599.374 47.9426 599.077 47.89 598.484 47.7847C597.89 47.6444 597.157 47.5392 596.285 47.469C595.447 47.3988 594.819 47.3638 594.4 47.3638C590.246 47.3638 586.581 48.96 583.405 52.1524C580.264 55.3098 578.693 59.7125 578.693 65.3607V96.3028H571.258Z" stroke="#C60000" stroke-width="6" mask="url(#path-4-outside-1_339_2)"/>
<path d="M617.871 97.25C614.067 97.25 610.838 96.7589 608.185 95.7766C605.567 94.7943 603.334 93.4086 601.484 91.6194C599.634 89.8302 598.238 87.9884 597.295 86.094C596.353 84.1996 595.881 83.2524 595.881 83.2524L602.636 80.0424C602.636 80.0424 603.072 80.8142 603.944 82.3578C604.852 83.9014 605.899 85.2696 607.086 86.4624C608.273 87.6551 609.773 88.6024 611.589 89.304C613.404 90.0056 615.672 90.3564 618.395 90.3564C621.781 90.3564 624.625 89.5846 626.929 88.041C629.268 86.4974 630.437 84.4452 630.437 81.8842C630.437 79.0075 629.477 76.9026 627.557 75.5695C625.672 74.2013 622.2 72.8857 617.138 71.6228C609.599 69.7284 604.52 67.5358 601.903 65.045C599.32 62.5191 598.028 59.2916 598.028 55.3624C598.028 50.8369 599.861 47.1708 603.526 44.3643C607.191 41.5226 611.955 40.1018 617.819 40.1018C620.576 40.1018 622.985 40.4527 625.044 41.1543C627.138 41.8559 628.988 42.9084 630.594 44.3116C632.2 45.7149 633.561 47.2936 634.678 49.0477C635.795 50.8018 636.353 51.6788 636.353 51.6788L630.07 55.2045C630.07 55.2045 629.669 54.5906 628.866 53.3627C628.063 52.0998 627.104 50.9947 625.987 50.0475C624.905 49.0652 623.631 48.3285 622.165 47.8374C620.734 47.3462 619.058 47.1006 617.138 47.1006C613.508 47.1006 610.664 47.8549 608.604 49.3634C606.58 50.8369 605.567 52.6611 605.567 54.8362C605.567 57.5375 606.719 59.5371 609.023 60.8352C611.327 62.0981 614.939 63.326 619.861 64.5187C626.318 66.0974 630.961 68.0445 633.788 70.3598C636.65 72.6752 638.081 76.3237 638.081 81.3053C638.081 86.287 636.214 90.1986 632.479 93.0402C628.744 95.8467 623.875 97.25 617.871 97.25Z" stroke="#C60000" stroke-width="6" mask="url(#path-4-outside-1_339_2)"/>
</svg>
